<?xml version="1.0" encoding="UTF-8" standalone="no"?>
<svg
   version="1.1"
   width="878.74017"
   height="878.74017"
   id="svg13"
   viewBox="0 0 878.74017 878.74017"
   sodipodi:docname="outlook-email-seeklogo.com.cdr"
   xmlns:inkscape="http://www.inkscape.org/namespaces/inkscape"
   xmlns:sodipodi="http://sodipodi.sourceforge.net/DTD/sodipodi-0.dtd"
   xmlns="http://www.w3.org/2000/svg"
   xmlns:svg="http://www.w3.org/2000/svg">
  <defs
     id="defs17" />
  <sodipodi:namedview
     id="namedview15"
     pagecolor="#ffffff"
     bordercolor="#666666"
     borderopacity="1.0"
     inkscape:pageshadow="2"
     inkscape:pageopacity="0.0"
     inkscape:pagecheckerboard="0" />
  <g
     id="Layer1000">
    <path
       d="M 407.1167,163.7426 V 727.8249 H 864.5669 V 163.7426 Z"
       style="fill:#ffffff;fill-rule:evenodd;stroke:#0000ff;stroke-width:7.9999;stroke-linecap:butt;stroke-linejoin:miter;stroke-dasharray:none"
       id="path2" />
    <path
       d="M 635.4862,538.074 407.1167,163.7426 H 576.6121 864.5669 L 690.7052,447.8425 Z"
       style="fill:none;stroke:#0000ff;stroke-width:7.9999;stroke-linecap:butt;stroke-linejoin:miter;stroke-dasharray:none"
       id="path4" />
    <path
       d="M 864.5669,727.8249 690.7052,447.8425 635.4862,538.074 579.1801,445.7805 407.1167,727.8249 h 228.7251 z"
       style="fill:none"
       id="path6" />
    <path
       d="M 16.1546,14.1732 V 864.567 H 543.1753 V 14.1732 Z"
       style="fill:#0000ff;fill-rule:evenodd"
       id="path8" />
    <path
       d="m 279.6651,261.7992 c 68.0891,0 123.286,79.5011 123.286,177.5709 0,98.0698 -55.1969,177.5708 -123.286,177.5708 -68.089,0 -123.2859,-79.501 -123.2859,-177.5708 0,-98.0698 55.1969,-177.5709 123.2859,-177.5709 z m 0,54.0178 c 47.3761,0 85.7819,55.3165 85.7819,123.5531 0,68.2365 -38.4058,123.553 -85.7819,123.553 -47.3761,0 -85.7818,-55.3165 -85.7818,-123.553 0,-68.2366 38.4057,-123.5531 85.7818,-123.5531 z"
       style="fill:#ffffff;fill-rule:evenodd"
       id="path10" />
  </g>
</svg>
